<svg width="24" height="24" viewBox="0 0 24 24" fill="none" xmlns="http://www.w3.org/2000/svg">
<path d="M8.80966 17.4876C6.34904 17.4876 4.26561 16.6336 2.55938 14.9256C0.853127 13.2176 0 11.157 0 8.74379C0 6.33062 0.854016 4.27002 2.56205 2.56201C4.27006 0.854005 6.33614 0 8.76028 0C11.1844 0 13.245 0.854005 14.942 2.56201C16.6391 4.27002 17.4876 6.33226 17.4876 8.74873C17.4876 9.71394 17.3433 10.6262 17.0546 11.4854C16.766 12.3447 16.333 13.1522 15.7557 13.9079L23.6107 21.697C23.8702 21.9592 24 22.2757 24 22.6465C24 23.0173 23.8702 23.3325 23.6107 23.5921C23.3445 23.864 23.0246 24 22.6509 24C22.2772 24 21.9654 23.864 21.7156 23.5921L13.8936 15.7887C13.2476 16.3211 12.4892 16.7373 11.6185 17.0374C10.7477 17.3375 9.81146 17.4876 8.80966 17.4876ZM8.78329 14.8797C10.4876 14.8797 11.9298 14.2813 13.1098 13.0845C14.2898 11.8877 14.8797 10.4408 14.8797 8.74379C14.8797 7.04675 14.2888 5.59984 13.107 4.40305C11.9252 3.20624 10.484 2.60784 8.78329 2.60784C7.06431 2.60784 5.60533 3.20624 4.40635 4.40305C3.20736 5.59984 2.60787 7.04675 2.60787 8.74379C2.60787 10.4408 3.20645 11.8877 4.40361 13.0845C5.60077 14.2813 7.06067 14.8797 8.78329 14.8797Z" fill="#5F5F5F"/>
</svg>
