<svg width="32" height="32" viewBox="0 0 32 32" fill="none" xmlns="http://www.w3.org/2000/svg">
<g clip-path="url(#clip0_1_94)">
<path d="M15.0671 0H16.9452C17.3678 0.0500942 17.7904 0.0931436 18.2114 0.15263C21.3652 0.597999 24.1542 1.85818 26.5411 3.96683C29.3528 6.45041 31.1042 9.54137 31.7655 13.2444C31.8727 13.8479 31.8946 14.46 32.0003 15.0611V16.9397C31.9763 17.0382 31.958 17.138 31.9455 17.2387C31.8486 18.6729 31.549 20.0862 31.0557 21.4364C29.7084 25.1548 27.0338 28.2435 23.5466 30.1081C20.0593 31.9727 16.0058 32.4815 12.1661 31.5366C3.94676 29.5243 -1.31758 21.3057 0.289817 12.9979C0.907264 9.81376 2.35032 7.05936 4.62994 4.75738C7.02042 2.34399 9.89245 0.837773 13.246 0.23873C13.8509 0.131497 14.4645 0.110364 15.0671 0ZM15.3464 18.1302C15.2259 18.1458 15.1054 18.167 14.9841 18.1771C14.4757 18.2153 13.9713 18.2954 13.4761 18.4167C9.71976 19.3669 7.08199 21.6248 5.56276 25.1903C5.47512 25.3954 5.55728 25.4932 5.67858 25.6185C8.91372 28.9693 12.8579 30.4823 17.4883 30.0338C20.9794 29.6957 23.9234 28.1608 26.34 25.6146C26.4965 25.4494 26.5035 25.3218 26.4182 25.1246C24.7795 21.3926 21.9724 19.1101 17.9735 18.3079C17.5408 18.221 17.0978 18.1826 16.6596 18.1216C19.8971 17.6519 21.8551 14.8529 21.6062 12.0296C21.4929 10.6452 20.8699 9.352 19.8578 8.40065C18.8458 7.44931 17.5168 6.90748 16.1282 6.88012C13.2061 6.81359 10.7512 9.00599 10.4155 11.8833C10.1079 14.5563 11.9016 17.6175 15.3464 18.1302Z" fill="#999999"/>
</g>
<defs>
<clipPath id="clip0_1_94">
<rect width="32" height="32" fill="white"/>
</clipPath>
</defs>
</svg>
